<svg id="Capa_1" enable-background="new 0 0 496.278 496.278" height="512" viewBox="0 0 496.278 496.278" width="512" xmlns="http://www.w3.org/2000/svg"><path d="m171.133 391.678 2.325 47.441-2.454 24.448-.088.212 47.771 22.781h98.06l18.962-28.193v-66.689z" fill="#d7d0d6"/><path d="m188.356 391.678h-28.787v66.689l59.118 28.193h28.788l-59.119-28.193z" fill="#c9bfc8"/><path d="m357.489 488.738-21.78-30.37h-157.291l-5.8 13.502-9.995 20.473 3.534 3.935h187.452c3.88 0 6.14-4.39 3.88-7.54z" fill="#efedef"/><path d="m470.129 74.377h-413.818l-27.002 7.298 6.772 299.622 36.002 9.037h398.043l25.682-17.976v-272.31c.001-14.181-11.499-25.671-25.679-25.671z" fill="#c8effe"/><path d="m46.423 100.047c0-14.18 11.5-25.67 25.68-25.67h-45.954c-14.18 0-25.68 11.49-25.68 25.67v272.31l71.615 17.976h45.954l-71.615-17.976z" fill="#99e6fc"/><path d="m39.792 372.357v42.32h430.337c14.18 0 25.68-11.49 25.68-25.67v-16.65z" fill="#efedef"/><path d="m46.423 389.008v-16.65h-45.954v16.65c0 14.18 11.5 25.67 25.68 25.67h45.954c-14.18 0-25.68-11.49-25.68-25.67z" fill="#e5e1e5"/><path d="m166.576 488.738 21.78-30.37h-28.787l-21.78 30.37c-2.26 3.15 0 7.54 3.88 7.54h28.787c-3.88 0-6.14-4.39-3.88-7.54z" fill="#e5e1e5"/><g id="XMLID_843_"><g><path d="m373.779 246.629c3.59 1.92 3.59 7.07 0 9l-123.73 66.36c-1.5.81-3.32.81-4.82 0l-123.73-66.36c-3.59-1.93-3.59-7.08 0-9l123.73-66.37c1.5-.81 3.32-.81 4.82 0z" fill="#ee6161"/></g></g><g id="XMLID_800_"><g><path d="m374.279 156.388c3.59 1.92 3.59 7.07 0 9l-123.73 66.36c-1.5.81-3.32.81-4.82 0l-123.73-66.36c-3.59-1.93-3.59-7.08 0-9l123.73-66.37c1.5-.81 3.32-.81 4.82 0z" fill="#f47c7c"/></g></g><g id="XMLID_799_"><g><path d="m373.779 66.978c3.59 1.92 3.59 7.07 0 9l-123.73 66.36c-1.5.81-3.32.81-4.82 0l-123.73-66.36c-3.59-1.93-3.59-7.08 0-9l123.73-66.37c1.5-.81 3.32-.81 4.82 0z" fill="#f9b1b1"/></g></g></svg>